<?xml version="1.0" encoding="utf-8"?>
<!-- Generator: Adobe Illustrator 19.2.1, SVG Export Plug-In . SVG Version: 6.00 Build 0)  -->
<svg version="1.1" id="Слой_1" xmlns="http://www.w3.org/2000/svg" xmlns:xlink="http://www.w3.org/1999/xlink" x="0px" y="0px"
	 viewBox="0 0 248.5 42" style="enable-background:new 0 0 248.5 42;" xml:space="preserve">
<style type="text/css">
	.st0{fill:#385264;}
	.st1{fill:#251D16;}
</style>
<g>
	<g>
		<path d="M63.5,10.2c0-1.5,0.1-2,0.5-2c0.3,0,1.2,1,1.5,1.3c0.4,0.5,7.1,7.3,13.8,14.1c3.7,3.6,8.5,8.4,9.8,9.5
			c-0.2-7.8-0.3-11.7-0.5-19.5c0-2.5-0.4-3.4-1.6-3.7c-0.8-0.2-1.5-0.2-1.9-0.2c-0.5,0-0.6-0.2-0.6-0.4c0-0.2,0.4-0.3,0.9-0.3
			c2.1,0,4.1,0.2,4.5,0.2c0.5,0,2-0.1,3.8-0.1c0.5,0,0.7,0.1,0.7,0.3c0,0.2-0.1,0.3-0.4,0.4c-0.3,0-0.7,0-1.2,0.1
			c-1.1,0.2-1.4,0.7-1.4,3.5c0,9.4-0.1,14.1-0.1,23.5c0,2.3-0.1,2.6-0.4,2.6c-0.3,0-0.8-0.3-3.2-2.5c-0.2-0.1-7-6.5-11-10.5
			c-5-4.9-9.8-10.1-11-11.3c0.2,7.5,0.4,11.2,0.6,18.7c0.1,3.3,0.4,4.5,1.6,4.8c0.8,0.2,1.6,0.2,2,0.2c0.4,0,0.6,0.1,0.6,0.3
			c0,0.2-0.2,0.3-0.8,0.3c-2.6,0-4.3-0.1-4.7-0.1c-0.3,0-2.1,0.2-4.2,0.2c-0.4,0-0.7,0-0.7-0.3c0-0.2,0.2-0.3,0.7-0.3
			c0.3,0,0.9,0,1.5-0.2c1.1-0.3,1.3-1.6,1.3-5.1C63.5,10.7,63.5,18.1,63.5,10.2z"/>
		<path d="M105,20.7c0-6.1,0-7.2-0.1-8.5c-0.1-1.3-0.4-1.9-1.4-2.1c-0.5-0.1-0.8-0.1-1.1-0.1c-0.3-0.1-0.5-0.1-0.5-0.3
			c0-0.2,0.2-0.3,0.7-0.3c1.5,0,4.2,0.2,4.4,0.2c0.2,0,3-0.1,4.3-0.1c0.5,0,0.7,0.1,0.7,0.3c0,0.2-0.2,0.3-0.5,0.3
			c-0.3,0-0.5,0-0.9,0.1c-1.4,0.2-1.5,0.9-1.6,2.2c-0.1,1.2,0,2.3,0,8.4c0,2.8,0,4.2,0,6.9c0,3.6,0,6.8,0.2,8.5
			c0.2,1.3,0.4,1.9,1.6,2.1c0.6,0.1,1.6,0.2,1.8,0.2c0.4,0,0.5,0.1,0.5,0.3c0,0.2-0.2,0.3-0.7,0.3c-2.4,0-5.2-0.1-5.5-0.1
			c-0.1,0-3,0.2-4.3,0.2c-0.4,0-0.8-0.1-0.8-0.3c0-0.2,0.2-0.3,0.6-0.3c0.2,0,0.8-0.1,1.2-0.1c0.8-0.2,1-1.1,1.1-2.2
			c0.2-1.7,0.2-5,0.2-8.4C105,24.8,105,23.4,105,20.7z"/>
		<path d="M132.7,27.6c0,3.5,0,6.8,0.2,8.5c0.1,1.1,0.2,1.7,1.4,2c0.6,0.1,1.5,0.2,1.9,0.2c0.4,0,0.6,0.1,0.6,0.3
			c0,0.2-0.1,0.4-0.6,0.4c-2.4,0-5.3-0.1-5.5-0.1c-0.2,0-3,0.1-4.3,0.2c-0.5,0-0.7-0.1-0.7-0.3c0-0.1,0.1-0.3,0.5-0.3
			c0.4,0,0.7,0,1.1-0.1c0.9-0.1,1.1-0.7,1.2-2.3c0.2-1.7,0.2-5,0.2-8.4c0-6.6,0-9.9,0-16.4c-1.6,0-4.1,0-6,0c-3.1,0-3.7,0.5-4.4,1.5
			c-0.4,0.6-0.6,1.2-0.7,1.4c-0.1,0.3-0.2,0.4-0.4,0.4c-0.2,0-0.2-0.2-0.2-0.4c0-0.3,0.7-3.3,1-4.6c0.1-0.6,0.3-0.7,0.4-0.7
			c0.3,0,1.2,0.4,2.1,0.5c1.7,0.2,3,0.2,3.1,0.2c6.3,0,9.4,0,15.7,0c1.3,0,2.8-0.1,3.5-0.2c0.6-0.1,0.8-0.2,0.9-0.2
			c0.2,0,0.3,0.2,0.3,0.4c0,1.3-0.1,4.3-0.1,4.7c0,0.4-0.2,0.6-0.3,0.6c-0.2,0-0.3-0.2-0.3-0.6c0-0.1,0-0.2,0-0.6
			c-0.2-1.8-0.8-2.3-5.7-2.3c-1.8,0-3.3-0.1-4.7-0.1C132.7,17.7,132.7,21,132.7,27.6z"/>
		<path d="M152.5,20.7c0-6.1,0-7.2-0.1-8.4c-0.1-1.2-0.4-1.9-1.4-2.1c-0.5-0.1-0.8-0.1-1.1-0.1c-0.3,0-0.5-0.1-0.5-0.3
			c0-0.2,0.2-0.3,0.7-0.3c1.5,0,4.2,0.1,4.4,0.1c0.2,0,3-0.1,4.3-0.1c0.5,0,0.7,0.1,0.7,0.3c0,0.2-0.2,0.3-0.5,0.3
			c-0.3,0-0.5,0-0.9,0.1c-1.4,0.2-1.5,0.9-1.6,2.2c-0.1,1.2,0,2.3,0,8.4c0,2.8,0,4.1,0,6.9c0,3.5,0,6.7,0.2,8.4
			c0.2,1.3,0.4,1.8,1.6,2.1c0.6,0.1,1.6,0.2,1.8,0.2c0.4,0,0.5,0.1,0.5,0.3c0,0.2-0.2,0.3-0.7,0.3c-2.4,0-5.2-0.1-5.5-0.1
			c-0.1,0-3,0.1-4.3,0.1c-0.4,0-0.8-0.1-0.8-0.3c0-0.2,0.2-0.3,0.6-0.3c0.2,0,0.8,0,1.2-0.1c0.8-0.2,1-1.1,1.1-2.2
			c0.2-1.6,0.2-4.9,0.2-8.4C152.5,24.8,152.5,23.5,152.5,20.7z"/>
		<path d="M166,24.1c0-6.1,4.9-15.3,16.8-15.3c9.5-0.1,16.8,5.4,16.8,14.7c0,8.9-6.8,16.1-17,16C170.8,39.4,166,31.1,166,24.1z
			 M195.1,24.7c0-9.3-6-14.5-12.5-14.5c-6.7,0-12,4-12,12.7c0,9,5.2,15,13.3,15.1C187,38,195.1,36.4,195.1,24.7z"/>
		<path d="M208.4,10.5c0-1.4,0.1-1.9,0.5-1.9c0.3,0,1.2,0.9,1.5,1.2c0.4,0.4,7.1,7.1,13.8,13.8c3.7,3.6,8.5,8.5,9.8,9.7
			c-0.2-7.9-0.3-11.9-0.5-19.9c0-2.6-0.4-3.5-1.6-3.7c-0.8-0.2-1.5-0.2-1.9-0.2c-0.5,0-0.6-0.2-0.6-0.4c0-0.2,0.4-0.3,0.9-0.3
			c2.1,0,4.1,0.1,4.5,0.1c0.5,0,2-0.2,3.8-0.2c0.5,0,0.7,0,0.7,0.3c0,0.2-0.1,0.3-0.4,0.4c-0.3,0.1-0.7,0.1-1.2,0.2
			c-1.1,0.3-1.4,0.7-1.4,3.6c0,9.6-0.1,14.4-0.1,24c0,2.4-0.1,2.6-0.4,2.6c-0.3,0-0.8-0.4-3.2-2.6c-0.2-0.1-7-6.7-11-10.8
			c-5-5-9.8-10-11-11.2c0.2,7.3,0.4,11,0.6,18.3c0.1,3.2,0.4,4.5,1.6,4.8c0.8,0.2,1.6,0.2,2,0.2c0.4,0,0.6,0.1,0.6,0.3
			c0,0.2-0.2,0.3-0.8,0.3c-2.6,0-4.3-0.2-4.7-0.2c-0.3,0-2.1,0.1-4.2,0.1c-0.4,0-0.7-0.1-0.7-0.3c0-0.2,0.2-0.3,0.7-0.3
			c0.3,0,0.9,0,1.5-0.2c1.1-0.3,1.3-1.6,1.3-5C208.4,11,208.5,18.2,208.4,10.5z"/>
	</g>
</g>
<path class="st0" d="M51.1,25.8l-13.3-5.1l5.1-13.3l8.3,3.2c2.8,1.1,4.1,4.2,3.1,6.9L51.1,25.8z"/>
<rect x="34.7" y="23" transform="matrix(0.9338 0.3579 -0.3579 0.9338 13.5418 -12.9759)" class="st1" width="14.2" height="14.2"/>
<rect x="26.4" y="4.3" transform="matrix(0.9338 0.3579 -0.3579 0.9338 6.2964 -11.2258)" class="st1" width="14.2" height="14.2"/>
<path class="st1" d="M32.4,34.1l-4.3-1.6c-5-1.9-7.4-7.5-5.5-12.4l1.6-4.3l13.3,5.1L32.4,34.1z"/>
</svg>
